<svg width="64" height="64" viewBox="0 0 64 64" fill="none" xmlns="http://www.w3.org/2000/svg">
<rect x="0.5" y="0.5" width="63" height="63" rx="3.5" fill="#1F1F1F" stroke="#12B886"/>
<g clip-path="url(#clip0_1_9)">
<path fill-rule="evenodd" clip-rule="evenodd" d="M28.0983 16.4343C27.8842 16.4379 27.6741 16.4925 27.4853 16.5934C27.2965 16.6944 27.1345 16.8389 27.0126 17.0149C26.8911 17.191 26.7949 17.3834 26.7269 17.5863C26.6286 17.8606 26.544 18.2149 26.4686 18.528L26.4389 18.64C26.2469 19.4309 26.0594 20.0731 25.792 20.4366C25.6239 20.6284 25.4216 20.7873 25.1954 20.9051C24.847 21.1047 24.4859 21.2811 24.1143 21.4331L23.8263 21.5566C23.5525 21.6702 23.2819 21.7914 23.0149 21.92C22.8594 21.9954 22.6606 22.1029 22.4891 22.24C22.321 22.3649 22.1838 22.5267 22.0879 22.7129C21.992 22.8992 21.94 23.1049 21.936 23.3143C21.936 23.9406 22.3794 24.2971 22.4869 24.384C22.6606 24.5211 22.8594 24.6286 23.0126 24.7063C23.2434 24.8206 23.5429 24.9486 23.8263 25.0697L24.1143 25.1931C24.5074 25.3623 24.8777 25.5337 25.1954 25.7189C25.421 25.8376 25.6225 25.9973 25.7897 26.1897C26.0594 26.5531 26.2469 27.1954 26.4389 27.9863L26.4686 28.1006C26.544 28.4091 26.6286 28.7634 26.7269 29.0377C26.7949 29.2406 26.8911 29.433 27.0126 29.6091C27.1497 29.8011 27.4994 30.1897 28.0983 30.1897C28.6994 30.1897 29.0491 29.8011 29.1863 29.6114C29.3078 29.4353 29.404 29.2429 29.472 29.04C29.5703 28.7634 29.6549 28.4091 29.7303 28.0983L29.7577 27.984C29.952 27.1954 30.1394 26.5531 30.4069 26.1897C30.5749 25.9979 30.7772 25.839 31.0034 25.7211C31.3511 25.5217 31.7115 25.3453 32.0823 25.1931L32.3726 25.0697C32.656 24.9486 32.9554 24.8206 33.184 24.7063C33.3394 24.6286 33.5383 24.5234 33.7097 24.3863C33.8778 24.2614 34.0151 24.0996 34.111 23.9133C34.2069 23.7271 34.2588 23.5214 34.2629 23.312C34.2584 23.1036 34.2065 22.8989 34.111 22.7135C34.0156 22.5281 33.8791 22.367 33.712 22.2423C33.5477 22.1168 33.3707 22.0088 33.184 21.92C32.9554 21.8057 32.656 21.6777 32.3726 21.5566L32.0823 21.4331C31.7115 21.2817 31.3511 21.1061 31.0034 20.9074C30.7779 20.7887 30.5764 20.629 30.4091 20.4366C30.1394 20.0731 29.952 19.4309 29.7577 18.64L29.7303 18.5257C29.6575 18.2098 29.5713 17.8972 29.472 17.5886C29.4042 17.3849 29.308 17.1917 29.1863 17.0149C29.0639 16.839 28.9014 16.6948 28.7122 16.5942C28.523 16.4936 28.3125 16.4396 28.0983 16.4366V16.4343ZM29.0537 32.9326C29.7772 32.7545 30.4366 32.3779 30.9576 31.8453C31.4785 31.3126 31.8404 30.645 32.0023 29.9177L32.0137 29.8766C32.0882 29.5637 32.1759 29.2541 32.2766 28.9486C32.3829 28.6242 32.5073 28.3059 32.6491 27.9954L32.6811 27.9726C32.8663 27.8469 33.1246 27.6983 33.4286 27.5451C33.7665 27.3771 34.1111 27.2231 34.4617 27.0834L34.512 27.0606C35.4397 26.7163 36.2068 26.0404 36.6651 25.1634L44.4754 22.9966L44.4869 22.9943C44.8619 22.8929 45.255 22.8782 45.6366 22.9513C46.0181 23.0244 46.378 23.1834 46.689 23.4162C47 23.649 47.254 23.9495 47.4316 24.295C47.6092 24.6405 47.7059 25.0219 47.7143 25.4103V38.7291C47.6891 39.7267 47.3521 40.6914 46.7506 41.4877C46.1492 42.284 45.3135 42.8719 44.3608 43.169C43.4082 43.4661 42.3864 43.4573 41.4389 43.1441C40.4915 42.8308 39.6659 42.2287 39.0781 41.4222C38.4904 40.6158 38.1699 39.6455 38.1617 38.6477C38.1535 37.6498 38.458 36.6744 39.0324 35.8584C39.6069 35.0425 40.4224 34.4269 41.3646 34.0981C42.3068 33.7693 43.3283 33.7438 44.2857 34.0251V30.7109L32.48 33.9886V42.9874C32.48 43.9906 32.1642 44.9682 31.5774 45.7818C30.9907 46.5954 30.1626 47.2037 29.2108 47.5203C28.259 47.837 27.2316 47.8459 26.2744 47.546C25.3171 47.246 24.4786 46.6523 23.8777 45.8491C23.2768 45.0459 22.944 44.0739 22.9264 43.0709C22.9089 42.0679 23.2075 41.0849 23.78 40.2612C24.3525 39.4374 25.1697 38.8148 26.1159 38.4816C27.0621 38.1483 28.0891 38.1214 29.0514 38.4046L29.0537 32.9326ZM20.4869 29.4834C20.9415 29.4834 21.3775 29.664 21.699 29.9855C22.0205 30.307 22.2011 30.7431 22.2011 31.1977V32.0754H23.0789C23.5335 32.0754 23.9695 32.256 24.291 32.5775C24.6125 32.899 24.7931 33.3351 24.7931 33.7897C24.7931 34.2444 24.6125 34.6804 24.291 35.0019C23.9695 35.3234 23.5335 35.504 23.0789 35.504H22.2011V36.3817C22.2011 36.8364 22.0205 37.2724 21.699 37.5939C21.3775 37.9154 20.9415 38.096 20.4869 38.096C20.0322 38.096 19.5962 37.9154 19.2747 37.5939C18.9532 37.2724 18.7726 36.8364 18.7726 36.3817V35.504H17.8949C17.4402 35.504 17.0042 35.3234 16.6827 35.0019C16.3612 34.6804 16.1806 34.2444 16.1806 33.7897C16.1806 33.3351 16.3612 32.899 16.6827 32.5775C17.0042 32.256 17.4402 32.0754 17.8949 32.0754H18.7726V31.2C18.7726 30.7453 18.9532 30.3093 19.2747 29.9878C19.5962 29.6663 20.0322 29.4834 20.4869 29.4834Z" fill="#12B886"/>
</g>
<defs>
<clipPath id="clip0_1_9">
<rect width="32" height="32" fill="white" transform="translate(16 16)"/>
</clipPath>
</defs>
</svg>
