<svg width="106" height="19" viewBox="0 0 106 19" fill="none" xmlns="http://www.w3.org/2000/svg">
<path d="M0.965909 15V6.27273H3.3125V7.79545H3.40341C3.5625 7.25379 3.82955 6.8447 4.20455 6.56818C4.57955 6.28788 5.01136 6.14773 5.5 6.14773C5.62121 6.14773 5.75189 6.1553 5.89205 6.17045C6.0322 6.18561 6.1553 6.20644 6.26136 6.23295V8.38068C6.14773 8.34659 5.99053 8.31629 5.78977 8.28977C5.58902 8.26326 5.4053 8.25 5.23864 8.25C4.88258 8.25 4.56439 8.32765 4.28409 8.48295C4.00758 8.63447 3.78788 8.84659 3.625 9.11932C3.46591 9.39205 3.38636 9.70644 3.38636 10.0625V15H0.965909ZM11.0838 15.1705C10.1861 15.1705 9.41335 14.9886 8.76562 14.625C8.12169 14.2576 7.62547 13.7386 7.27699 13.0682C6.9285 12.3939 6.75426 11.5966 6.75426 10.6761C6.75426 9.77841 6.9285 8.99053 7.27699 8.3125C7.62547 7.63447 8.116 7.10606 8.74858 6.72727C9.38494 6.34848 10.1312 6.15909 10.9872 6.15909C11.563 6.15909 12.099 6.25189 12.5952 6.4375C13.0952 6.61932 13.5308 6.89394 13.902 7.26136C14.277 7.62879 14.5687 8.09091 14.777 8.64773C14.9853 9.20076 15.0895 9.84848 15.0895 10.5909V11.2557H7.72017V9.75568H12.8111C12.8111 9.4072 12.7353 9.09848 12.5838 8.82955C12.4323 8.56061 12.2221 8.35038 11.9531 8.19886C11.688 8.04356 11.3793 7.96591 11.027 7.96591C10.6596 7.96591 10.3338 8.05114 10.0497 8.22159C9.76941 8.38826 9.54972 8.61364 9.39062 8.89773C9.23153 9.17803 9.15009 9.49053 9.14631 9.83523V11.2614C9.14631 11.6932 9.22585 12.0663 9.38494 12.3807C9.54782 12.6951 9.77699 12.9375 10.0724 13.108C10.3679 13.2784 10.7183 13.3636 11.1236 13.3636C11.3925 13.3636 11.6387 13.3258 11.8622 13.25C12.0857 13.1742 12.277 13.0606 12.4361 12.9091C12.5952 12.7576 12.7164 12.572 12.7997 12.3523L15.0384 12.5C14.9247 13.0379 14.6918 13.5076 14.3395 13.9091C13.991 14.3068 13.5402 14.6174 12.9872 14.8409C12.438 15.0606 11.8035 15.1705 11.0838 15.1705ZM20.6122 15.1705C19.7183 15.1705 18.9493 14.9811 18.3054 14.6023C17.6652 14.2197 17.1728 13.6894 16.8281 13.0114C16.4872 12.3333 16.3168 11.553 16.3168 10.6705C16.3168 9.77652 16.4891 8.99242 16.8338 8.31818C17.1823 7.64015 17.6766 7.11174 18.3168 6.73295C18.9569 6.35038 19.7183 6.15909 20.6009 6.15909C21.3622 6.15909 22.0289 6.29735 22.6009 6.57386C23.1728 6.85038 23.6255 7.23864 23.9588 7.73864C24.2921 8.23864 24.4759 8.82576 24.5099 9.5H22.2259C22.1615 9.06439 21.991 8.71401 21.7145 8.44886C21.4418 8.17992 21.0838 8.04545 20.6406 8.04545C20.2656 8.04545 19.938 8.14773 19.6577 8.35227C19.3812 8.55303 19.1652 8.84659 19.0099 9.23295C18.8546 9.61932 18.777 10.0871 18.777 10.6364C18.777 11.1932 18.8527 11.6667 19.0043 12.0568C19.1596 12.447 19.3774 12.7443 19.6577 12.9489C19.938 13.1534 20.2656 13.2557 20.6406 13.2557C20.9171 13.2557 21.1652 13.1989 21.3849 13.0852C21.6084 12.9716 21.7921 12.8068 21.9361 12.5909C22.0838 12.3712 22.1804 12.108 22.2259 11.8011H24.5099C24.4721 12.4678 24.2902 13.0549 23.9645 13.5625C23.6425 14.0663 23.1974 14.4602 22.6293 14.7443C22.0611 15.0284 21.3887 15.1705 20.6122 15.1705ZM30.0028 15.1705C29.1203 15.1705 28.357 14.983 27.7131 14.608C27.0729 14.2292 26.5786 13.7027 26.2301 13.0284C25.8816 12.3504 25.7074 11.5644 25.7074 10.6705C25.7074 9.76894 25.8816 8.98106 26.2301 8.30682C26.5786 7.62879 27.0729 7.10227 27.7131 6.72727C28.357 6.34848 29.1203 6.15909 30.0028 6.15909C30.8854 6.15909 31.6468 6.34848 32.2869 6.72727C32.9309 7.10227 33.4271 7.62879 33.7756 8.30682C34.1241 8.98106 34.2983 9.76894 34.2983 10.6705C34.2983 11.5644 34.1241 12.3504 33.7756 13.0284C33.4271 13.7027 32.9309 14.2292 32.2869 14.608C31.6468 14.983 30.8854 15.1705 30.0028 15.1705ZM30.0142 13.2955C30.4157 13.2955 30.7509 13.1818 31.0199 12.9545C31.2888 12.7235 31.4915 12.4091 31.6278 12.0114C31.768 11.6136 31.8381 11.161 31.8381 10.6534C31.8381 10.1458 31.768 9.69318 31.6278 9.29545C31.4915 8.89773 31.2888 8.58333 31.0199 8.35227C30.7509 8.12121 30.4157 8.00568 30.0142 8.00568C29.6089 8.00568 29.268 8.12121 28.9915 8.35227C28.7188 8.58333 28.5123 8.89773 28.3722 9.29545C28.2358 9.69318 28.1676 10.1458 28.1676 10.6534C28.1676 11.161 28.2358 11.6136 28.3722 12.0114C28.5123 12.4091 28.7188 12.7235 28.9915 12.9545C29.268 13.1818 29.6089 13.2955 30.0142 13.2955ZM35.8722 15V6.27273H38.2188V7.79545H38.3097C38.4688 7.25379 38.7358 6.8447 39.1108 6.56818C39.4858 6.28788 39.9176 6.14773 40.4062 6.14773C40.5275 6.14773 40.6581 6.1553 40.7983 6.17045C40.9384 6.18561 41.0616 6.20644 41.1676 6.23295V8.38068C41.054 8.34659 40.8968 8.31629 40.696 8.28977C40.4953 8.26326 40.3116 8.25 40.1449 8.25C39.7888 8.25 39.4706 8.32765 39.1903 8.48295C38.9138 8.63447 38.6941 8.84659 38.5312 9.11932C38.3722 9.39205 38.2926 9.70644 38.2926 10.0625V15H35.8722ZM45.2287 15.142C44.5658 15.142 43.9654 14.9716 43.4276 14.6307C42.8935 14.286 42.4692 13.7803 42.1548 13.1136C41.8442 12.4432 41.6889 11.6212 41.6889 10.6477C41.6889 9.64773 41.8499 8.81629 42.1719 8.15341C42.4938 7.48674 42.9219 6.98864 43.456 6.65909C43.9938 6.32576 44.5829 6.15909 45.223 6.15909C45.7116 6.15909 46.1188 6.24242 46.4446 6.40909C46.7741 6.57197 47.0393 6.77652 47.2401 7.02273C47.4446 7.26515 47.5999 7.50379 47.706 7.73864H47.7798V3.36364H50.1946V15H47.8082V13.6023H47.706C47.5923 13.8447 47.4313 14.0852 47.223 14.3239C47.0185 14.5587 46.7514 14.7538 46.4219 14.9091C46.0961 15.0644 45.6984 15.142 45.2287 15.142ZM45.9957 13.2159C46.3859 13.2159 46.7154 13.1098 46.9844 12.8977C47.2571 12.6818 47.4654 12.3807 47.6094 11.9943C47.7571 11.608 47.831 11.1553 47.831 10.6364C47.831 10.1174 47.759 9.66667 47.6151 9.28409C47.4711 8.90151 47.2628 8.60606 46.9901 8.39773C46.7173 8.18939 46.3859 8.08523 45.9957 8.08523C45.598 8.08523 45.2628 8.19318 44.9901 8.40909C44.7173 8.625 44.5109 8.92424 44.3707 9.30682C44.2306 9.68939 44.1605 10.1326 44.1605 10.6364C44.1605 11.1439 44.2306 11.5928 44.3707 11.983C44.5147 12.3693 44.7211 12.6723 44.9901 12.892C45.2628 13.108 45.598 13.2159 45.9957 13.2159Z" fill="white"/>
<path d="M54.3778 12.4886L54.3835 9.58523H54.7358L57.5312 6.27273H60.3097L56.554 10.6591H55.9801L54.3778 12.4886ZM52.1847 15V3.36364H54.6051V15H52.1847ZM57.6392 15L55.071 11.1989L56.6847 9.48864L60.4744 15H57.6392ZM65.1151 15.1705C64.2173 15.1705 63.4446 14.9886 62.7969 14.625C62.1529 14.2576 61.6567 13.7386 61.3082 13.0682C60.9598 12.3939 60.7855 11.5966 60.7855 10.6761C60.7855 9.77841 60.9598 8.99053 61.3082 8.3125C61.6567 7.63447 62.1473 7.10606 62.7798 6.72727C63.4162 6.34848 64.1624 6.15909 65.0185 6.15909C65.5942 6.15909 66.1302 6.25189 66.6264 6.4375C67.1264 6.61932 67.562 6.89394 67.9332 7.26136C68.3082 7.62879 68.5999 8.09091 68.8082 8.64773C69.0166 9.20076 69.1207 9.84848 69.1207 10.5909V11.2557H61.7514V9.75568H66.8423C66.8423 9.4072 66.7666 9.09848 66.6151 8.82955C66.4635 8.56061 66.2533 8.35038 65.9844 8.19886C65.7192 8.04356 65.4105 7.96591 65.0582 7.96591C64.6908 7.96591 64.3651 8.05114 64.081 8.22159C63.8007 8.38826 63.581 8.61364 63.4219 8.89773C63.2628 9.17803 63.1813 9.49053 63.1776 9.83523V11.2614C63.1776 11.6932 63.2571 12.0663 63.4162 12.3807C63.5791 12.6951 63.8082 12.9375 64.1037 13.108C64.3991 13.2784 64.7495 13.3636 65.1548 13.3636C65.4238 13.3636 65.67 13.3258 65.8935 13.25C66.117 13.1742 66.3082 13.0606 66.4673 12.9091C66.6264 12.7576 66.7476 12.572 66.831 12.3523L69.0696 12.5C68.956 13.0379 68.723 13.5076 68.3707 13.9091C68.0223 14.3068 67.5715 14.6174 67.0185 14.8409C66.4692 15.0606 65.8348 15.1705 65.1151 15.1705ZM74.6776 15.1705C73.7798 15.1705 73.0071 14.9886 72.3594 14.625C71.7154 14.2576 71.2192 13.7386 70.8707 13.0682C70.5223 12.3939 70.348 11.5966 70.348 10.6761C70.348 9.77841 70.5223 8.99053 70.8707 8.3125C71.2192 7.63447 71.7098 7.10606 72.3423 6.72727C72.9787 6.34848 73.7249 6.15909 74.581 6.15909C75.1567 6.15909 75.6927 6.25189 76.1889 6.4375C76.6889 6.61932 77.1245 6.89394 77.4957 7.26136C77.8707 7.62879 78.1624 8.09091 78.3707 8.64773C78.5791 9.20076 78.6832 9.84848 78.6832 10.5909V11.2557H71.3139V9.75568H76.4048C76.4048 9.4072 76.3291 9.09848 76.1776 8.82955C76.026 8.56061 75.8158 8.35038 75.5469 8.19886C75.2817 8.04356 74.973 7.96591 74.6207 7.96591C74.2533 7.96591 73.9276 8.05114 73.6435 8.22159C73.3632 8.38826 73.1435 8.61364 72.9844 8.89773C72.8253 9.17803 72.7438 9.49053 72.7401 9.83523V11.2614C72.7401 11.6932 72.8196 12.0663 72.9787 12.3807C73.1416 12.6951 73.3707 12.9375 73.6662 13.108C73.9616 13.2784 74.312 13.3636 74.7173 13.3636C74.9863 13.3636 75.2325 13.3258 75.456 13.25C75.6795 13.1742 75.8707 13.0606 76.0298 12.9091C76.1889 12.7576 76.3101 12.572 76.3935 12.3523L78.6321 12.5C78.5185 13.0379 78.2855 13.5076 77.9332 13.9091C77.5848 14.3068 77.134 14.6174 76.581 14.8409C76.0317 15.0606 75.3973 15.1705 74.6776 15.1705ZM80.2628 18.2727V6.27273H82.6491V7.73864H82.7571C82.8632 7.50379 83.0166 7.26515 83.2173 7.02273C83.4219 6.77652 83.687 6.57197 84.0128 6.40909C84.3423 6.24242 84.7514 6.15909 85.2401 6.15909C85.8764 6.15909 86.4635 6.32576 87.0014 6.65909C87.5393 6.98864 87.9692 7.48674 88.2912 8.15341C88.6132 8.81629 88.7741 9.64773 88.7741 10.6477C88.7741 11.6212 88.617 12.4432 88.3026 13.1136C87.992 13.7803 87.5677 14.286 87.0298 14.6307C86.4957 14.9716 85.8973 15.142 85.2344 15.142C84.7647 15.142 84.3651 15.0644 84.0355 14.9091C83.7098 14.7538 83.4427 14.5587 83.2344 14.3239C83.026 14.0852 82.867 13.8447 82.7571 13.6023H82.6832V18.2727H80.2628ZM82.6321 10.6364C82.6321 11.1553 82.7041 11.608 82.848 11.9943C82.992 12.3807 83.2003 12.6818 83.473 12.8977C83.7457 13.1098 84.0772 13.2159 84.4673 13.2159C84.8613 13.2159 85.1946 13.108 85.4673 12.892C85.7401 12.6723 85.9465 12.3693 86.0866 11.983C86.2306 11.5928 86.3026 11.1439 86.3026 10.6364C86.3026 10.1326 86.2325 9.68939 86.0923 9.30682C85.9522 8.92424 85.7457 8.625 85.473 8.40909C85.2003 8.19318 84.8651 8.08523 84.4673 8.08523C84.0734 8.08523 83.7401 8.18939 83.4673 8.39773C83.1984 8.60606 82.992 8.90151 82.848 9.28409C82.7041 9.66667 82.6321 10.1174 82.6321 10.6364ZM94.3651 15.1705C93.4673 15.1705 92.6946 14.9886 92.0469 14.625C91.4029 14.2576 90.9067 13.7386 90.5582 13.0682C90.2098 12.3939 90.0355 11.5966 90.0355 10.6761C90.0355 9.77841 90.2098 8.99053 90.5582 8.3125C90.9067 7.63447 91.3973 7.10606 92.0298 6.72727C92.6662 6.34848 93.4124 6.15909 94.2685 6.15909C94.8442 6.15909 95.3802 6.25189 95.8764 6.4375C96.3764 6.61932 96.812 6.89394 97.1832 7.26136C97.5582 7.62879 97.8499 8.09091 98.0582 8.64773C98.2666 9.20076 98.3707 9.84848 98.3707 10.5909V11.2557H91.0014V9.75568H96.0923C96.0923 9.4072 96.0166 9.09848 95.8651 8.82955C95.7135 8.56061 95.5033 8.35038 95.2344 8.19886C94.9692 8.04356 94.6605 7.96591 94.3082 7.96591C93.9408 7.96591 93.6151 8.05114 93.331 8.22159C93.0507 8.38826 92.831 8.61364 92.6719 8.89773C92.5128 9.17803 92.4313 9.49053 92.4276 9.83523V11.2614C92.4276 11.6932 92.5071 12.0663 92.6662 12.3807C92.8291 12.6951 93.0582 12.9375 93.3537 13.108C93.6491 13.2784 93.9995 13.3636 94.4048 13.3636C94.6738 13.3636 94.92 13.3258 95.1435 13.25C95.367 13.1742 95.5582 13.0606 95.7173 12.9091C95.8764 12.7576 95.9976 12.572 96.081 12.3523L98.3196 12.5C98.206 13.0379 97.973 13.5076 97.6207 13.9091C97.2723 14.3068 96.8215 14.6174 96.2685 14.8409C95.7192 15.0606 95.0848 15.1705 94.3651 15.1705ZM99.9503 15V6.27273H102.297V7.79545H102.388C102.547 7.25379 102.814 6.8447 103.189 6.56818C103.564 6.28788 103.996 6.14773 104.484 6.14773C104.606 6.14773 104.736 6.1553 104.876 6.17045C105.017 6.18561 105.14 6.20644 105.246 6.23295V8.38068C105.132 8.34659 104.975 8.31629 104.774 8.28977C104.573 8.26326 104.39 8.25 104.223 8.25C103.867 8.25 103.549 8.32765 103.268 8.48295C102.992 8.63447 102.772 8.84659 102.609 9.11932C102.45 9.39205 102.371 9.70644 102.371 10.0625V15H99.9503Z" fill="#12B886"/>
</svg>
